# xmcd
#
# Track frame offsets: 
#        150
#        18327
#        38235
#        62057
#        78677
#        100285
#        122147
#        142235
#        159492
#        174397
#        190785
#
# Disc length: 2725 seconds
#
# Revision: 0
# Processed by: cddbd v1.5.2PL0 Copyright (c) Steve Scherf et al.
# Submitted via: ExactAudioCopyFreeDBPlugin 1.0
#
DISCID=950aa30b
DTITLE=周慧敏 - 最爱
DYEAR=1993
DGENRE=Pop
TTITLE0=自动自觉
TTITLE1=最爱
TTITLE2=付出许多的爱情
TTITLE3=别望着我离开
TTITLE4=对不起，亲爱的
TTITLE5=你还记得从前吗
TTITLE6=为何偷偷摸摸
TTITLE7=梦里伊人
TTITLE8=悲哀摇摆
TTITLE9=一个人在途上
TTITLE10=张学友 周慧敏 - 留住秋色
EXTD=
EXTT0=
EXTT1=
EXTT2=
EXTT3=
EXTT4=
EXTT5=
EXTT6=
EXTT7=
EXTT8=
EXTT9=
EXTT10=
PLAYORDER=
